<svg width="40" height="40" viewBox="0 0 40 40" fill="none" xmlns="http://www.w3.org/2000/svg">
<path fill-rule="evenodd" clip-rule="evenodd" d="M11.0176 14.4592C16.0332 9.84694 24.1651 9.84694 29.1807 14.4592L29.7844 15.0143C30.0352 15.2449 30.0352 15.6188 29.7844 15.8494L27.7195 17.7482C27.5941 17.8635 27.3908 17.8635 27.2654 17.7482L26.4347 16.9844C22.9357 13.7668 17.2626 13.7668 13.7636 16.9844L12.874 17.8024C12.7486 17.9177 12.5453 17.9177 12.4199 17.8024L10.355 15.9036C10.1042 15.6729 10.1042 15.2991 10.355 15.0684L11.0176 14.4592ZM33.958 18.0592L35.8104 19.7238C36.0632 19.9509 36.0632 20.3191 35.8104 20.5463L27.4579 28.0518C27.2052 28.2789 26.7953 28.2789 26.5426 28.0518C26.5426 28.0518 26.5426 28.0518 26.5426 28.0518L20.6145 22.7249C20.5513 22.6681 20.4488 22.6681 20.3856 22.7249C20.3856 22.7249 20.3856 22.7249 20.3856 22.7249L14.4577 28.0518C14.2049 28.2789 13.7951 28.2789 13.5423 28.0518C13.5423 28.0518 13.5423 28.0518 13.5423 28.0518L5.18958 20.5462C4.93681 20.319 4.93681 19.9508 5.18958 19.7237L7.04196 18.0591C7.29473 17.832 7.70455 17.832 7.95732 18.0591L13.8855 23.3861C13.9487 23.4429 14.0511 23.4429 14.1143 23.3861C14.1143 23.3861 14.1143 23.3861 14.1143 23.3861L20.0422 18.0591C20.295 17.832 20.7048 17.832 20.9576 18.0591C20.9576 18.0591 20.9576 18.0591 20.9576 18.0591L26.8858 23.3861C26.949 23.4429 27.0514 23.4429 27.1146 23.3861L33.0427 18.0592C33.2955 17.8321 33.7053 17.8321 33.958 18.0592Z" fill="#1565FF"/>
</svg>
